HIERARCHY
ROOT Hips
{
	OFFSET 0.000000 0.000000 0.000000
	CHANNELS 6 Xposition Yposition Zposition Xrotation Yrotation Zrotation
	JOINT LeftUpLeg_virtual
	{
		OFFSET 0.000000 0.000000 0.000000
		CHANNELS 3 Xrotation Yrotation Zrotation
		JOINT LeftUpLeg
		{
			OFFSET 10.205400 -3.823500 0.155100
			CHANNELS 3 Xrotation Yrotation Zrotation
			JOINT LeftLeg
			{
				OFFSET 0.708757 -12.982077 0.567790
				CHANNELS 3 Xrotation Yrotation Zrotation
				JOINT LeftFoot
				{
					OFFSET -0.708756 -10.717838 -2.184338
					CHANNELS 3 Xrotation Yrotation Zrotation
					JOINT LeftToeBase
					{
						OFFSET 0.108149 -7.191104 7.560241
						CHANNELS 3 Xrotation Yrotation Zrotation
						JOINT LeftToe_End
						{
							OFFSET 0.070230 0.081724 4.490308
							CHANNELS 3 Xrotation Yrotation Zrotation
							End Site
							{
								OFFSET 0 0 0
							}
						}
					}
				}
			}
		}
	}
	JOINT RightUpLeg_virtual
	{
		OFFSET 0.000000 0.000000 0.000000
		CHANNELS 3 Xrotation Yrotation Zrotation
		JOINT RightUpLeg
		{
			OFFSET -10.205400 -3.823500 0.005500
			CHANNELS 3 Xrotation Yrotation Zrotation
			JOINT RightLeg
			{
				OFFSET -0.708756 -12.982134 0.610632
				CHANNELS 3 Xrotation Yrotation Zrotation
				JOINT RightFoot
				{
					OFFSET 0.708754 -10.717769 -1.945823
					CHANNELS 3 Xrotation Yrotation Zrotation
					JOINT RightToeBase
					{
						OFFSET -0.108140 -7.191069 7.372968
						CHANNELS 3 Xrotation Yrotation Zrotation
						JOINT RightToe_End
						{
							OFFSET -0.070227 0.081735 4.479403
							CHANNELS 3 Xrotation Yrotation Zrotation
							End Site
							{
								OFFSET 0 0 0
							}
						}
					}
				}
			}
		}
	}
	JOINT Spine_virtual
	{
		OFFSET 0.000000 0.000000 0.000000
		CHANNELS 3 Xrotation Yrotation Zrotation
		JOINT Spine
		{
			OFFSET 0.000000 6.876099 0.125700
			CHANNELS 3 Xrotation Yrotation Zrotation
			JOINT Spine1
			{
				OFFSET 0.000000 5.730043 0.104720
				CHANNELS 3 Xrotation Yrotation Zrotation
				JOINT Spine1_split
				{
					OFFSET 0.000000 5.730043 0.104720
					CHANNELS 3 Xrotation Yrotation Zrotation
					JOINT Spine2
					{
						OFFSET 0.000000 5.730043 0.104720
						CHANNELS 3 Xrotation Yrotation Zrotation
						JOINT Neck_virtual
						{
							OFFSET 0.000000 0.000000 0.000000
							CHANNELS 3 Xrotation Yrotation Zrotation
							JOINT Neck
							{
								OFFSET 0.000000 10.314075 0.188496
								CHANNELS 3 Xrotation Yrotation Zrotation
								JOINT Head
								{
									OFFSET 0.000000 7.643700 -2.377400
									CHANNELS 3 Xrotation Yrotation Zrotation
									JOINT HeadTop_End
									{
										OFFSET 0.000000 43.788605 -13.619600
										CHANNELS 3 Xrotation Yrotation Zrotation
										End Site
										{
											OFFSET 0 0 0
										}
									}
								}
							}
						}
						JOINT LeftShoulder_virtual
						{
							OFFSET 0.000000 0.000000 0.000000
							CHANNELS 3 Xrotation Yrotation Zrotation
							JOINT LeftShoulder
							{
								OFFSET 2.196100 4.412489 0.087492
								CHANNELS 3 Xrotation Yrotation Zrotation
								JOINT LeftShoulder_split
								{
									OFFSET 2.196100 4.412489 0.087492
									CHANNELS 3 Xrotation Yrotation Zrotation
									JOINT LeftArm
									{
										OFFSET 8.771219 -2.981674 -0.026999
										CHANNELS 3 Xrotation Yrotation Zrotation
										JOINT LeftForeArm
										{
											OFFSET 8.512804 0.000000 -0.000000
											CHANNELS 3 Xrotation Yrotation Zrotation
											JOINT LeftHand
											{
												OFFSET 18.484802 0.000000 -0.000000
												CHANNELS 3 Xrotation Yrotation Zrotation
												End Site
												{
													OFFSET 0 0 0
												}
											}
										}
									}
								}
							}
						}
						JOINT RightShoulder_virtual
						{
							OFFSET 0.000000 0.000000 0.000000
							CHANNELS 3 Xrotation Yrotation Zrotation
							JOINT RightShoulder
							{
								OFFSET -2.196100 4.412496 0.070690
								CHANNELS 3 Xrotation Yrotation Zrotation
								JOINT RightShoulder_split
								{
									OFFSET -2.196100 4.412496 0.070690
									CHANNELS 3 Xrotation Yrotation Zrotation
									JOINT RightArm
									{
										OFFSET -8.771282 -2.981682 -0.094208
										CHANNELS 3 Xrotation Yrotation Zrotation
										JOINT RightForeArm
										{
											OFFSET -8.494598 0.000000 0.000000
											CHANNELS 3 Xrotation Yrotation Zrotation
											JOINT RightHand
											{
												OFFSET -18.483803 0.000000 0.000001
												CHANNELS 3 Xrotation Yrotation Zrotation
												End Site
												{
													OFFSET 0 0 0
												}
											}
										}
									}
								}
							}
						}
					}
				}
			}
		}
	}
}
MOTION
Frames: 10
Frame Time: 0.03333333
-0.197836 34.776436 0.224867 0.000000 0.000000 0.000000 -6.137108 -16.571642 -1.432877 6.919682 22.725725 3.464412 10.254565 4.521470 0.001894 -18.090497 -0.252684 -1.898727 2.919232 0.731855 -0.972564 0.000000 0.000000 0.000000 -6.196603 -14.185919 -1.318027 3.567491 -8.607878 -12.173830 3.843443 -10.960896 0.273790 0.701919 -3.933955 7.176695 -4.359775 -1.684251 -1.720011 0.000000 0.000000 0.000000 -6.056076 -16.558175 -1.914585 10.314365 2.249393 0.511478 -4.474103 1.404261 -0.970273 0.858246 0.437258 0.146139 0.000000 0.000000 0.000000 -5.729151 3.788284 -1.329895 5.301822 3.708387 1.299438 1.840948 -6.390413 4.769398 0.000000 0.000000 0.000000 -6.121493 3.849219 -1.592994 2.360625 -13.094152 -2.698806 -2.005906 -2.339813 -0.043853 15.331756 6.031562 -74.982568 3.701502 -10.084083 0.917988 0.000000 0.000000 0.000000 -4.996197 3.987133 -1.462296 1.131033 2.969549 4.765927 -3.081315 -1.041339 -1.369320 0.528807 7.611766 79.987246 2.339340 20.223020 1.697256 0.000000 0.000000 0.000000 
-0.174223 34.736710 0.226330 0.000000 0.000000 0.000000 -6.168568 -16.822471 -1.451123 6.515277 22.689111 3.465695 10.889804 4.539214 0.149587 -18.212284 -0.298173 -1.857673 2.973678 0.716662 -1.014589 0.000000 0.000000 0.000000 -6.143868 -14.232609 -1.341876 3.444280 -8.630088 -11.944707 3.613942 -11.045993 0.051296 0.902881 -4.072852 7.314989 -4.523003 -1.596734 -1.730882 0.000000 0.000000 0.000000 -6.148985 -16.655454 -1.975738 10.243346 2.211814 0.536649 -4.531585 1.393984 -1.020736 0.752723 0.518379 0.115792 0.000000 0.000000 0.000000 -5.855782 3.776920 -1.376335 5.373495 3.678658 1.347195 1.851837 -6.387460 4.747177 0.000000 0.000000 0.000000 -6.146909 3.845574 -1.648522 2.331671 -12.991705 -2.850914 -2.022418 -2.230151 -0.057356 15.303437 6.411059 -74.735349 3.514129 -9.980295 0.731094 0.000000 0.000000 0.000000 -4.995766 3.989616 -1.524449 1.113592 3.060702 4.891408 -2.942542 -1.011005 -1.347445 0.576243 7.665617 80.118877 2.420816 20.756977 1.708318 0.000000 0.000000 0.000000 
-0.149361 34.655544 0.200724 0.000000 0.000000 0.000000 -6.052141 -16.948508 -1.532309 5.563981 22.456503 3.825292 12.196111 4.332841 0.321936 -18.388104 -0.597182 -1.780275 2.929363 0.689738 -1.071022 0.000000 0.000000 0.000000 -6.110649 -14.106371 -1.465870 3.089436 -8.993734 -11.663974 3.909606 -10.939946 -0.142666 0.541771 -4.115930 7.722047 -4.540922 -1.412446 -1.660292 0.000000 0.000000 0.000000 -6.077787 -16.757637 -2.086321 10.113797 2.154142 0.644901 -4.591447 1.375541 -1.096159 0.742295 0.528308 0.127046 0.000000 0.000000 0.000000 -5.979511 3.756548 -1.452664 5.421774 3.646768 1.286397 1.783695 -6.492578 4.919420 0.000000 0.000000 0.000000 -6.158737 3.823737 -1.709691 2.266746 -12.820167 -3.098124 -2.063482 -2.263411 -0.106161 15.288620 6.789870 -74.131240 3.554504 -9.705041 0.620342 0.000000 0.000000 0.000000 -4.991074 3.972247 -1.606649 1.073002 3.078971 5.135684 -2.983302 -1.041185 -1.343219 0.608389 8.258763 79.963921 2.690705 21.332180 1.772690 0.000000 0.000000 0.000000 
-0.103516 34.542824 0.105566 0.000000 0.000000 0.000000 -5.841689 -16.927883 -1.620390 4.219821 22.135318 4.399969 13.914449 4.014521 0.462415 -18.578111 -1.106529 -1.564801 2.816652 0.648630 -1.085201 0.000000 0.000000 0.000000 -6.104538 -13.808373 -1.620215 2.518544 -9.645842 -11.429814 4.558341 -10.647739 -0.319911 -0.319973 -4.093954 8.286340 -4.200293 -1.168785 -1.473485 0.000000 0.000000 0.000000 -5.860813 -16.870718 -2.208753 9.973517 2.081330 0.782782 -4.636484 1.357796 -1.179719 0.843459 0.523398 0.172684 0.000000 0.000000 0.000000 -6.095583 3.732021 -1.535320 5.440355 3.607967 1.151265 1.670952 -6.684449 5.251375 0.000000 0.000000 0.000000 -6.148683 3.791730 -1.761046 2.173475 -12.580710 -3.417796 -2.008289 -2.460199 -0.143408 15.168933 7.002905 -73.312921 3.785109 -9.317754 0.542511 0.000000 0.000000 0.000000 -4.978311 3.941672 -1.689980 1.015434 3.018906 5.478937 -3.158386 -1.068272 -1.359648 0.657534 9.195090 79.497426 3.128173 21.857731 1.901901 0.000000 0.000000 0.000000 
-0.023967 34.409145 -0.064526 0.000000 0.000000 0.000000 -5.579532 -16.831560 -1.659582 2.763984 21.875018 4.942011 15.708899 3.711813 0.536424 -18.828286 -1.715277 -1.073894 2.716264 0.590293 -1.056280 0.000000 0.000000 0.000000 -6.083190 -13.487627 -1.713660 1.860459 -10.472341 -11.269637 5.192008 -10.220182 -0.524173 -1.485601 -4.049705 8.825119 -3.590493 -0.934456 -1.164180 0.000000 0.000000 0.000000 -5.579251 -17.042999 -2.296034 9.894584 2.003777 0.852811 -4.668328 1.351731 -1.251528 0.985273 0.597606 0.246661 0.000000 0.000000 0.000000 -6.193576 3.718371 -1.601880 5.389901 3.569136 1.026951 1.528663 -6.868136 5.676709 0.000000 0.000000 0.000000 -6.137299 3.769921 -1.787388 2.071639 -12.291074 -3.751337 -1.874422 -2.745976 -0.044189 14.893204 7.015172 -72.426506 4.104870 -8.965882 0.434331 0.000000 0.000000 0.000000 -4.964543 3.910536 -1.751214 0.941530 2.858517 5.911302 -3.412147 -1.042772 -1.374548 0.746751 10.209324 78.753966 3.692875 22.231876 2.115703 0.000000 0.000000 0.000000 
0.101893 34.261555 -0.283941 0.000000 0.000000 0.000000 -5.261010 -16.755885 -1.596002 1.433252 21.866343 5.218715 17.247433 3.518267 0.510823 -19.195178 -2.295456 -0.281044 2.691799 0.523855 -1.017212 0.000000 0.000000 0.000000 -5.972668 -13.343506 -1.694814 1.099411 -11.346859 -11.242721 5.544551 -9.685665 -0.774104 -2.515678 -3.990097 9.221706 -2.971237 -0.769504 -0.810314 0.000000 0.000000 0.000000 -5.322267 -17.365327 -2.323407 9.949324 1.938056 0.778110 -4.701828 1.375102 -1.286606 1.044742 0.740857 0.331824 0.000000 0.000000 0.000000 -6.265347 3.724378 -1.626396 5.258917 3.550505 0.984150 1.383775 -6.952856 6.109666 0.000000 0.000000 0.000000 -6.131386 3.771727 -1.774665 1.983913 -11.933739 -4.038284 -1.727952 -2.970701 0.145425 14.416195 6.880350 -71.594029 4.344427 -8.799071 0.213726 0.000000 0.000000 0.000000 -4.954816 3.895548 -1.765899 0.847959 2.619747 6.395644 -3.693811 -0.981845 -1.382654 0.890723 11.005145 77.772577 4.339471 22.360736 2.418981 0.000000 0.000000 0.000000 
0.251801 34.123135 -0.497965 0.000000 0.000000 0.000000 -4.994601 -16.956682 -1.443246 0.491192 22.222413 5.153801 18.242959 3.426846 0.434577 -19.594720 -2.735001 0.628548 2.665759 0.461544 -0.971668 0.000000 0.000000 0.000000 -5.847099 -13.557212 -1.566318 0.100934 -12.094241 -11.316315 5.574912 -9.037477 -0.993260 -2.893140 -3.874389 9.482230 -2.632275 -0.759104 -0.513471 0.000000 0.000000 0.000000 -5.207061 -17.818565 -2.273777 10.221080 1.883235 0.485226 -4.745957 1.429016 -1.267132 1.013927 0.853969 0.409108 0.000000 0.000000 0.000000 -6.297694 3.752228 -1.587709 5.035803 3.581911 1.078635 1.245366 -6.883784 6.469778 0.000000 0.000000 0.000000 -6.142164 3.806537 -1.709833 1.910556 -11.506900 -4.237381 -1.582200 -3.151887 0.355038 13.772662 6.705099 -70.887207 4.357511 -8.844023 -0.182639 0.000000 0.000000 0.000000 -4.963862 3.906838 -1.710867 0.731946 2.335694 6.899225 -3.942619 -0.893321 -1.378656 1.053302 11.441953 76.681222 5.016919 22.235985 2.799917 0.000000 0.000000 0.000000 
0.430226 34.032097 -0.737495 0.000000 0.000000 0.000000 -4.844114 -17.608147 -1.243700 0.029963 22.971845 4.757270 18.657599 3.437682 0.329779 -19.897321 -2.917711 1.490204 2.606387 0.406204 -0.954401 0.000000 0.000000 0.000000 -5.797207 -14.262466 -1.387063 -1.178130 -12.588268 -11.467388 5.424947 -8.171794 -1.132648 -2.286099 -3.578487 9.705630 -2.644104 -0.982603 -0.400421 0.000000 0.000000 0.000000 -5.234250 -18.433354 -2.167147 10.735749 1.837708 -0.052616 -4.816257 1.507534 -1.179318 0.952152 0.874481 0.427081 0.000000 0.000000 0.000000 -6.286613 3.803303 -1.468248 4.720033 3.700829 1.347303 1.100192 -6.635898 6.684549 0.000000 0.000000 0.000000 -6.178631 3.872748 -1.586524 1.855105 -11.041621 -4.338856 -1.431085 -3.309111 0.481821 13.112365 6.636241 -70.315418 4.043962 -9.164745 -0.772415 0.000000 0.000000 0.000000 -4.990483 3.945769 -1.569683 0.603200 2.062490 7.378746 -4.170087 -0.793119 -1.396508 1.210442 11.503839 75.573455 5.682555 21.934773 3.236332 0.000000 0.000000 0.000000 
0.624305 34.005070 -1.021175 0.000000 0.000000 0.000000 -4.865858 -18.822666 -1.061885 0.030988 24.074431 4.127628 18.588565 3.571135 0.211210 -20.045903 -2.778732 2.270778 2.508231 0.365904 -0.990545 0.000000 0.000000 0.000000 -5.914447 -15.458767 -1.234247 -2.618177 -12.746996 -11.579697 5.279107 -7.070538 -1.163310 -0.907894 -3.070343 9.784018 -2.651537 -1.513903 -0.588837 0.000000 0.000000 0.000000 -5.425386 -19.289873 -2.066128 11.484336 1.797467 -0.815624 -4.910161 1.595674 -1.004664 0.914703 0.803602 0.475357 0.000000 0.000000 0.000000 -6.253645 3.861648 -1.258896 4.304311 3.940942 1.758904 0.918323 -6.195718 6.722005 0.000000 0.000000 0.000000 -6.229525 3.945935 -1.399373 1.810515 -10.555371 -4.347773 -1.237839 -3.396486 0.530693 12.462263 6.698329 -69.809984 3.376341 -9.680931 -1.530554 0.000000 0.000000 0.000000 -5.031104 4.005244 -1.339214 0.470011 1.849075 7.796126 -4.373866 -0.700150 -1.465626 1.347420 11.325192 74.535068 6.321273 21.559410 3.675231 0.000000 0.000000 0.000000 
0.816798 34.032272 -1.302063 0.000000 0.000000 0.000000 -5.091538 -20.491756 -0.985964 0.400654 25.437341 3.401119 18.137038 3.840446 0.091175 -20.038189 -2.330678 2.973613 2.406442 0.351612 -1.071289 0.000000 0.000000 0.000000 -6.182371 -17.181957 -1.173719 -4.120849 -12.554428 -11.580518 5.189910 -5.778004 -1.127545 0.967063 -2.332383 9.812875 -2.802009 -2.411536 -1.132130 0.000000 0.000000 0.000000 -5.732247 -20.477643 -2.022619 12.386108 1.757374 -1.742166 -5.011729 1.669288 -0.738450 0.928385 0.616789 0.475931 0.000000 0.000000 0.000000 -6.227076 3.911473 -0.965409 3.798229 4.321645 2.239640 0.675222 -5.534530 6.589607 0.000000 0.000000 0.000000 -6.292894 3.999625 -1.143710 1.769914 -10.094335 -4.279720 -1.005957 -3.416174 0.512255 11.842967 6.911177 -69.293020 2.459338 -10.271327 -2.380764 0.000000 0.000000 0.000000 -5.089582 4.064653 -1.020511 0.348067 1.691108 8.145883 -4.529800 -0.603827 -1.602435 1.463631 11.131177 73.661056 6.929798 21.240980 4.063572 0.000000 0.000000 0.000000 
